<?xml version="1.0" encoding="UTF-8"?>
<svg width="15px" height="9px" viewBox="0 0 15 9" version="1.1" xmlns="http://www.w3.org/2000/svg" xmlns:xlink="http://www.w3.org/1999/xlink">
    <title>B5C5CBCF-C4C3-4F1B-8391-A74A9FEDA872</title>
    <g id="09.2020" stroke="none" stroke-width="1" fill="none" fill-rule="evenodd">
        <g id="6-week---Login" transform="translate(-314.000000, -432.000000)" fill="#FFFFFF" fill-rule="nonzero">
            <g id="Login/password" transform="translate(32.000000, 405.000000)">
                <g id="eye" transform="translate(282.360856, 27.000000)">
                    <path d="M6.78899083,0 C4.19477279,0 1.84220033,1.57824296 0.106240728,4.14172958 C-0.035413576,4.35175017 -0.035413576,4.64516129 0.106240728,4.85518188 C1.84220033,7.42175704 4.19477279,9 6.78899083,9 C9.38320886,9 11.7357813,7.42175704 13.4717409,4.85827042 C13.6133952,4.64824983 13.6133952,4.35483871 13.4717409,4.14481812 C11.7357813,1.57824296 9.38320886,0 6.78899083,0 Z M6.9750857,7.66884008 C5.25301377,7.78929307 3.83091566,6.2110501 3.93923954,4.29306795 C4.02812067,2.71173644 5.18079785,1.42999314 6.60289596,1.33115992 C8.32496788,1.21070693 9.74706599,2.7889499 9.63874211,4.70693205 C9.54708345,6.28517502 8.39440627,7.56691833 6.9750857,7.66884008 Z M6.8889821,6.20487303 C5.96128529,6.26973233 5.19468552,5.42038435 5.2557913,4.38881263 C5.3030094,3.53637612 5.92517733,2.84763212 6.69177709,2.79203844 C7.6194739,2.72717914 8.38607366,3.57652711 8.32496788,4.60809883 C8.27497225,5.46362388 7.65280433,6.15236788 6.8889821,6.20487303 Z" id="Shape"></path>
                </g>
            </g>
        </g>
    </g>
</svg>