<svg height="21" viewBox="0 0 16 21" width="16" xmlns="http://www.w3.org/2000/svg">
    <g fill="#003DFF" fill-rule="nonzero" stroke="#003DFF" stroke-width=".5">
        <path
            d="M7.978 1C4.131 1 1 4.087 1 7.881c0 4.709 6.245 11.621 6.51 11.913.25.275.687.274.936 0 .266-.292 6.51-7.204 6.51-11.913C14.957 4.087 11.827 1 7.979 1zm0 17.431c-2.101-2.461-5.721-7.318-5.721-10.55 0-3.11 2.566-5.642 5.721-5.642 3.155 0 5.722 2.531 5.722 5.642 0 3.232-3.62 8.088-5.722 10.55z" />
        <path
            d="M8 5C6.346 5 5 6.346 5 8s1.346 3 3 3 3-1.346 3-3-1.346-3-3-3zm0 4.8c-.993 0-1.8-.807-1.8-1.8S7.007 6.2 8 6.2s1.8.807 1.8 1.8S8.993 9.8 8 9.8z" />
    </g>
</svg>
