<?xml version="1.0" encoding="UTF-8"?>
<svg width="106px" height="149px" viewBox="0 0 106 149" version="1.1" xmlns="http://www.w3.org/2000/svg" xmlns:xlink="http://www.w3.org/1999/xlink">
    <title>BB0BFFC9-B2E2-4254-949C-4DA32522899C</title>
    <defs>
        <polygon id="path-1" points="0.147795372 0.123529412 18.6028117 0.123529412 18.6028117 19.9998824 0.147795372 19.9998824"></polygon>
        <polygon id="path-3" points="0.123728814 0.123529412 17.6426554 0.123529412 17.6426554 20 0.123728814 20"></polygon>
        <polygon id="path-5" points="0.046779661 0.123529412 17.5662712 0.123529412 17.5662712 20 0.046779661 20"></polygon>
    </defs>
    <g id="09.2020" stroke="none" stroke-width="1" fill="none" fill-rule="evenodd">
        <g id="6-week---Login" transform="translate(-126.000000, -100.000000)">
            <g id="Group" transform="translate(126.000000, 100.000000)">
                <path d="M83.3822465,37.9561453 L82.007158,51.0833483 C81.8568628,52.5179601 80.6488936,53.6065574 79.2098736,53.6065574 L73.2126485,53.6065574 C71.5347265,53.6065574 70.7428729,52.2988925 70.9301811,50.6283618 L71.885789,37.3483732 C72.0461786,35.9227488 73.2496615,34.8442623 74.6819518,34.8442623 L80.5849621,34.8442623 C82.2550328,34.8442623 83.5560953,36.2934785 83.3822465,37.9561453 L83.3822465,37.9561453 Z M79.8121743,63.8650442 L78.4370735,76.9930333 C78.286777,78.4277309 77.0799185,79.5163934 75.639764,79.5163934 L69.6424851,79.5163934 C67.9656697,79.5163934 67.173809,78.2086502 67.3599972,76.539143 L68.3167354,63.2572357 C68.4760048,61.831526 69.6794984,60.7540984 71.1118016,60.7540984 L77.0148648,60.7540984 C78.6849505,60.7540984 79.9871463,62.2022779 79.8121743,63.8650442 L79.8121743,63.8650442 Z M76.2424726,89.7758174 L74.8673508,102.90302 C74.717052,104.336509 73.5101751,105.42623 72.0699986,105.42623 L66.0726279,105.42623 C64.3957869,105.42623 63.6039141,104.118565 63.7901052,102.448034 L64.7468579,89.1680453 C64.9061298,87.7424209 66.1085202,86.6639344 67.5419669,86.6639344 L73.4451204,86.6639344 C75.11411,86.6639344 76.4163257,88.1120273 76.2424726,89.7758174 L76.2424726,89.7758174 Z M40.9280832,105.42623 L34.9292847,105.42623 C33.4901563,105.42623 32.2832177,104.336509 32.1329113,102.90302 L30.7577192,89.7758174 C30.5827356,88.1131507 31.8850178,86.6639344 33.5552143,86.6639344 L39.4586692,86.6639344 C40.8910674,86.6639344 42.0946409,87.7424209 42.2539209,89.1680453 L43.2096008,102.448034 C43.3969231,104.118565 42.6050099,105.42623 40.9280832,105.42623 L40.9280832,105.42623 Z M28.5618972,76.9930333 L27.1878268,63.8650442 C27.0128431,62.2022779 28.3151254,60.7540984 29.9853221,60.7540984 L35.8887774,60.7540984 C37.3211758,60.7540984 38.5247493,61.831526 38.6840293,63.2572357 L39.6397094,76.539143 C39.8270316,78.2086502 39.0351184,79.5163934 37.3570699,79.5163934 L31.3593925,79.5163934 C29.920264,79.5163934 28.7122037,78.4277309 28.5618972,76.9930333 L28.5618972,76.9930333 Z M24.9929667,51.0833483 L23.6177549,37.9561453 C23.4438905,36.2934785 24.7450697,34.8442623 26.4152902,34.8442623 L32.31883,34.8442623 C33.7512488,34.8442623 34.9548395,35.9227488 35.1141218,37.3483732 L36.0698155,50.6283618 C36.2571405,52.2988925 35.4652159,53.6065574 33.7882651,53.6065574 L27.790502,53.6065574 C26.3502313,53.6065574 25.1432754,52.5179601 24.9929667,51.0833483 L24.9929667,51.0833483 Z M95,33.288629 L94.9492402,33.288629 C94.469229,31.2968324 93.4297566,29.4546129 91.8893069,27.9313448 C90.8189372,26.8744058 89.5720116,26.0297344 88.2070144,25.4259264 C88.5082628,24.2172104 88.602058,22.9579022 88.4740551,21.6919949 C87.924525,16.2841184 83.3318665,11.9353806 77.5529734,11.3502697 C76.4208091,11.2358872 75.2974726,11.2666825 74.2072404,11.4316573 C74.2061369,11.2985776 74.2028265,11.1665977 74.1962056,11.033518 C73.9346823,5.16591147 68.8112528,0.32774821 62.532486,0.0164956069 C59.0940612,-0.152878601 55.8785381,0.990947221 53.5005517,3.03883538 C51.1225654,0.992047054 47.9048353,-0.152878601 44.4697209,0.0164956069 C38.1092971,0.331047708 32.9825571,5.23630075 32.798277,11.1852949 C32.79607,11.2666825 32.7938631,11.3469702 32.7938631,11.4283579 C32.1350891,11.3293729 31.4608666,11.2787806 30.7833336,11.2809803 C27.5071194,11.2875793 24.2960102,12.5754832 21.9754045,14.8125425 C19.6525918,17.0518015 18.3780794,20.0917386 18.4762886,23.1525725 C18.500565,23.9257548 18.6064985,24.6879387 18.7907787,25.4292258 C17.4975072,26.0022386 16.3101692,26.7897187 15.2795246,27.7685696 C13.6519005,29.3149341 12.54953,31.2198441 12.0507598,33.288629 L12,33.288629 L12.0198625,33.4151098 C12.0132417,33.4426056 12.0055174,33.4712012 12,33.4986971 L12.0331042,33.4986971 L23.9969688,109 L26.6762035,109 L36.016007,109 L70.983993,109 L83.0030312,109 L94.9657923,33.4986971 L95,33.4986971 C94.9933792,33.4712012 94.9867583,33.4426056 94.9801375,33.4151098 L95,33.288629 Z" id="Fill-1" fill="#FFFFFF"></path>
                <g id="Group-14" transform="translate(0.000000, 129.000000)">
                    <path d="M0,0.349663062 L4.91398688,0.349663062 L4.91398688,3.741308 L5.01834351,3.741308 C5.80274797,1.48599571 7.80656838,0 10.3506218,0 C13.0517867,0 14.9339538,1.39865225 15.5609584,3.84600447 L15.6656034,3.84600447 C16.5018979,1.48599571 18.7323048,0 21.4683513,0 C25.1277523,0 27.5847458,2.51734268 27.5847458,6.29364591 L27.5847458,19.0909091 L22.4963507,19.0909091 L22.4963507,7.56995947 C22.4963507,5.40199064 21.416173,4.21302054 19.446946,4.21302054 C17.5126005,4.21302054 16.240718,5.62931501 16.240718,7.70965116 L16.240718,19.0909091 L11.3440278,19.0909091 L11.3440278,7.41262555 C11.3440278,5.40199064 10.2113835,4.21302054 8.32950468,4.21302054 C6.39515927,4.21302054 5.08810679,5.68195246 5.08810679,7.77964162 L5.08810679,19.0909091 L0,19.0909091 L0,0.349663062 Z" id="Fill-1" fill="#FFFFFF"></path>
                    <g id="Group-5" transform="translate(29.364407, 0.000000)">
                        <mask id="mask-2" fill="white">
                            <use xlink:href="#path-1"></use>
                        </mask>
                        <g id="Clip-4"></g>
                        <path d="M13.4416168,10.0616471 C13.4416168,6.27488235 11.8426324,4.08782353 9.37515978,4.08782353 C6.90739967,4.08782353 5.29145378,6.27488235 5.29145378,10.0616471 C5.29145378,13.884 6.87261415,16.0354706 9.37515978,16.0354706 C11.8601689,16.0354706 13.4416168,13.884 13.4416168,10.0616471 M0.147795372,10.0437059 C0.147795372,3.87488235 3.79682601,0.123411765 9.37515978,0.123411765 C14.9534935,0.123411765 18.6028117,3.85694118 18.6028117,10.0437059 C18.6028117,16.3195882 15.0055281,19.9998824 9.37515978,19.9998824 C3.74507894,19.9998824 0.147795372,16.3022353 0.147795372,10.0437059" id="Fill-3" fill="#FFFFFF" mask="url(#mask-2)"></path>
                    </g>
                    <polygon id="Fill-6" fill="#FFFFFF" points="60.3046968 20 54.5360701 20 48.0508475 0.909090909 53.5221938 0.909090909 57.4203835 15.4052189 57.525357 15.4052189 61.4059065 0.909090909 66.7372881 0.909090909"></polygon>
                    <g id="Group-10" transform="translate(67.627119, 0.000000)">
                        <mask id="mask-4" fill="white">
                            <use xlink:href="#path-3"></use>
                        </mask>
                        <g id="Clip-9"></g>
                        <path d="M5.07570621,8.07061765 L12.8449153,8.07061765 C12.7426554,5.63502941 11.2228814,3.96355882 9.00282486,3.96355882 C6.81723164,3.96355882 5.24632768,5.68797059 5.07570621,8.07061765 L5.07570621,8.07061765 Z M17.4889831,13.7597353 C16.9429379,17.4932647 13.6644068,20.0000294 9.13954802,20.0000294 C3.50451977,20.0000294 0.123728814,16.2488529 0.123728814,10.1506176 C0.123728814,4.07032353 3.53898305,0.123264706 8.95169492,0.123264706 C14.2793785,0.123264706 17.6426554,3.87473529 17.6426554,9.67032353 L17.6426554,11.2526765 L5.02429379,11.2526765 L5.02429379,11.5729706 C5.02429379,14.2929706 6.68079096,16.1597353 9.22485876,16.1597353 C11.0519774,16.1597353 12.4522599,15.2176765 12.9132768,13.7597353 L17.4889831,13.7597353 Z" id="Fill-8" fill="#FFFFFF" mask="url(#mask-4)"></path>
                    </g>
                    <g id="Group-13" transform="translate(87.203390, 0.000000)">
                        <mask id="mask-6" fill="white">
                            <use xlink:href="#path-5"></use>
                        </mask>
                        <g id="Clip-12"></g>
                        <path d="M4.99875706,8.07061765 L12.7679661,8.07061765 C12.6657062,5.63502941 11.1459322,3.96355882 8.92587571,3.96355882 C6.74028249,3.96355882 5.16937853,5.68797059 4.99875706,8.07061765 L4.99875706,8.07061765 Z M17.4125989,13.7597353 C16.8662712,17.4932647 13.5874576,20.0000294 9.06259887,20.0000294 C3.42757062,20.0000294 0.046779661,16.2488529 0.046779661,10.1506176 C0.046779661,4.07032353 3.4620339,0.123264706 8.87502825,0.123264706 C14.2024294,0.123264706 17.5662712,3.87473529 17.5662712,9.67032353 L17.5662712,11.2526765 L4.94734463,11.2526765 L4.94734463,11.5729706 C4.94734463,14.2929706 6.60384181,16.1597353 9.1479096,16.1597353 C10.9750282,16.1597353 12.3753107,15.2176765 12.8363277,13.7597353 L17.4125989,13.7597353 Z" id="Fill-11" fill="#FFFFFF" mask="url(#mask-6)"></path>
                    </g>
                </g>
            </g>
        </g>
    </g>
</svg>